<svg width="17" height="12" viewBox="0 0 17 12" fill="none" xmlns="http://www.w3.org/2000/svg">
<path d="M4.63636 6.18182C5.09486 6.18182 5.54305 6.04586 5.92428 5.79113C6.3055 5.53641 6.60263 5.17436 6.77808 4.75077C6.95354 4.32717 6.99945 3.86106 6.91 3.41138C6.82055 2.9617 6.59977 2.54864 6.27557 2.22443C5.95136 1.90023 5.5383 1.67945 5.08862 1.59C4.63894 1.50055 4.17283 1.54646 3.74923 1.72192C3.32564 1.89737 2.96359 2.1945 2.70887 2.57572C2.45414 2.95695 2.31818 3.40514 2.31818 3.86364C2.31818 4.47846 2.56242 5.0681 2.99716 5.50284C3.43191 5.93758 4.02154 6.18182 4.63636 6.18182ZM4.63636 3.09091C4.78919 3.09091 4.93859 3.13623 5.06567 3.22114C5.19274 3.30605 5.29178 3.42673 5.35027 3.56793C5.40876 3.70912 5.42406 3.86449 5.39424 4.01439C5.36443 4.16428 5.29083 4.30197 5.18276 4.41004C5.0747 4.5181 4.93701 4.5917 4.78711 4.62152C4.63722 4.65133 4.48185 4.63603 4.34065 4.57754C4.19946 4.51906 4.07877 4.42002 3.99386 4.29294C3.90896 4.16587 3.86364 4.01647 3.86364 3.86364C3.86364 3.6587 3.94505 3.46215 4.08996 3.31724C4.23488 3.17232 4.43142 3.09091 4.63636 3.09091ZM14.6818 1.54545H8.5C8.29506 1.54545 8.09851 1.62687 7.9536 1.77178C7.80868 1.9167 7.72727 2.11324 7.72727 2.31818V6.95455H1.54545V0.772727C1.54545 0.567787 1.46404 0.371241 1.31913 0.226327C1.17421 0.0814123 0.977667 0 0.772727 0C0.567787 0 0.371241 0.0814123 0.226327 0.226327C0.0814121 0.371241 0 0.567787 0 0.772727V10.8182C0 11.0231 0.0814121 11.2197 0.226327 11.3646C0.371241 11.5095 0.567787 11.5909 0.772727 11.5909C0.977667 11.5909 1.17421 11.5095 1.31913 11.3646C1.46404 11.2197 1.54545 11.0231 1.54545 10.8182V8.5H15.4545V10.8182C15.4545 11.0231 15.536 11.2197 15.6809 11.3646C15.8258 11.5095 16.0223 11.5909 16.2273 11.5909C16.4322 11.5909 16.6288 11.5095 16.7737 11.3646C16.9186 11.2197 17 11.0231 17 10.8182V3.86364C17 3.24882 16.7558 2.65918 16.321 2.22443C15.8863 1.78969 15.2966 1.54545 14.6818 1.54545ZM15.4545 6.95455H9.27273V3.09091H14.6818C14.8868 3.09091 15.0833 3.17232 15.2282 3.31724C15.3731 3.46215 15.4545 3.6587 15.4545 3.86364V6.95455Z" fill="#9CA6CB"/>
</svg>
