<svg width="15" height="15" viewBox="0 0 15 15" fill="none" xmlns="http://www.w3.org/2000/svg">
<path d="M7.9425 8.25008L6.2175 9.96758C6.1472 10.0373 6.09141 10.1202 6.05333 10.2116C6.01525 10.303 5.99565 10.4011 5.99565 10.5001C5.99565 10.5991 6.01525 10.6971 6.05333 10.7885C6.09141 10.8799 6.1472 10.9629 6.2175 11.0326C6.28722 11.1029 6.37017 11.1587 6.46157 11.1967C6.55296 11.2348 6.65099 11.2544 6.75 11.2544C6.84901 11.2544 6.94704 11.2348 7.03843 11.1967C7.12983 11.1587 7.21278 11.1029 7.2825 11.0326L10.2825 8.03258C10.3508 7.96125 10.4043 7.87714 10.44 7.78508C10.515 7.60248 10.515 7.39767 10.44 7.21508C10.4043 7.12301 10.3508 7.0389 10.2825 6.96758L7.2825 3.96757C7.21257 3.89765 7.12955 3.84218 7.03819 3.80433C6.94682 3.76648 6.84889 3.74701 6.75 3.74701C6.65111 3.74701 6.55318 3.76648 6.46181 3.80433C6.37045 3.84218 6.28743 3.89765 6.2175 3.96757C6.14757 4.0375 6.0921 4.12052 6.05426 4.21189C6.01641 4.30325 5.99693 4.40118 5.99693 4.50007C5.99693 4.59897 6.01641 4.6969 6.05426 4.78826C6.0921 4.87963 6.14757 4.96265 6.2175 5.03257L7.9425 6.75008H0.75C0.551088 6.75008 0.360322 6.82909 0.21967 6.96975C0.0790176 7.1104 0 7.30116 0 7.50008C0 7.69899 0.0790176 7.88975 0.21967 8.03041C0.360322 8.17106 0.551088 8.25008 0.75 8.25008H7.9425ZM7.5 7.47703e-05C6.09832 -0.00618307 4.72293 0.380484 3.52985 1.11622C2.33677 1.85195 1.37374 2.90731 0.75 4.16257C0.660489 4.3416 0.645761 4.54884 0.709054 4.73872C0.772348 4.9286 0.908479 5.08556 1.0875 5.17507C1.26652 5.26459 1.47377 5.27931 1.66365 5.21602C1.85353 5.15273 2.01049 5.0166 2.1 4.83757C2.57414 3.88007 3.29537 3.06654 4.18916 2.48107C5.08295 1.89559 6.11687 1.55941 7.18407 1.50727C8.25127 1.45512 9.31303 1.68891 10.2596 2.18446C11.2062 2.68001 12.0034 3.41935 12.5686 4.32607C13.1338 5.2328 13.4467 6.27401 13.4748 7.34211C13.5029 8.41022 13.2453 9.46646 12.7286 10.4017C12.2119 11.3369 11.4549 12.1172 10.5357 12.6619C9.61645 13.2066 8.56847 13.496 7.5 13.5001C6.38166 13.5049 5.28462 13.1943 4.33477 12.604C3.38492 12.0137 2.62077 11.1675 2.13 10.1626C2.04049 9.98355 1.88353 9.84742 1.69365 9.78413C1.50377 9.72084 1.29652 9.73557 1.1175 9.82508C0.938479 9.91459 0.802348 10.0715 0.739054 10.2614C0.675761 10.4513 0.690489 10.6586 0.78 10.8376C1.37462 12.0342 2.27814 13.0503 3.3971 13.7806C4.51607 14.511 5.80984 14.9291 7.14459 14.9918C8.47935 15.0545 9.80661 14.7595 10.9891 14.1372C12.1716 13.5149 13.1664 12.5881 13.8706 11.4524C14.5747 10.3168 14.9627 9.01368 14.9944 7.67783C15.026 6.34198 14.7002 5.02192 14.0507 3.8542C13.4011 2.68648 12.4514 1.7135 11.2997 1.0359C10.148 0.358308 8.83623 0.00070211 7.5 7.47703e-05Z" fill="#9CA6CB"/>
</svg>
