<svg width="21" height="21" viewBox="0 0 21 21" fill="none" xmlns="http://www.w3.org/2000/svg">
<path d="M20.6635 0.310043C20.566 0.211801 20.4501 0.133824 20.3224 0.0806106C20.1947 0.027397 20.0577 0 19.9193 0C19.7809 0 19.6439 0.027397 19.5162 0.0806106C19.3885 0.133824 19.2725 0.211801 19.1751 0.310043L16.953 2.53214L16.2088 1.79843C16.0124 1.60321 15.7468 1.49363 15.4699 1.49363C15.1929 1.49363 14.9273 1.60321 14.7309 1.79843L13.253 3.27633L12.5088 2.53214C12.4114 2.43389 12.2954 2.35592 12.1677 2.3027C12.04 2.24949 11.903 2.22209 11.7646 2.22209C11.6262 2.22209 11.4892 2.24949 11.3615 2.3027C11.2338 2.35592 11.1179 2.43389 11.0204 2.53214L2.87624 10.6868L2.1006 9.95309C1.89716 9.81091 1.64987 9.74554 1.40274 9.76861C1.15562 9.79169 0.924698 9.9017 0.751092 10.0791C0.577485 10.2565 0.472457 10.4897 0.454704 10.7373C0.436951 10.9848 0.507626 11.2307 0.654146 11.431L4.35414 15.1415L2.54083 16.9653L1.79664 16.2106C1.59927 16.0132 1.33157 15.9023 1.05245 15.9023C0.77332 15.9023 0.505626 16.0132 0.308254 16.2106C0.110882 16.408 2.07965e-09 16.6757 0 16.9548C-2.07965e-09 17.2339 0.110882 17.5016 0.308254 17.699L3.27454 20.6653C3.37248 20.7624 3.48863 20.8393 3.61634 20.8914C3.74404 20.9436 3.88079 20.97 4.01873 20.9692C4.15668 20.97 4.29342 20.9436 4.42113 20.8914C4.54883 20.8393 4.66498 20.7624 4.76292 20.6653C4.86117 20.5678 4.93914 20.4519 4.99236 20.3242C5.04557 20.1964 5.07297 20.0594 5.07297 19.9211C5.07297 19.7827 5.04557 19.6457 4.99236 19.518C4.93914 19.3902 4.86117 19.2743 4.76292 19.1769L4.01873 18.4432L5.84253 16.6194L9.54252 20.3194C9.6396 20.4184 9.75536 20.4972 9.8831 20.5512C10.0108 20.6052 10.148 20.6332 10.2867 20.6338C10.494 20.6329 10.6964 20.5706 10.8683 20.4547C11.0402 20.3389 11.1738 20.1746 11.2523 19.9828C11.3309 19.7909 11.3508 19.5801 11.3095 19.3769C11.2682 19.1738 11.1676 18.9874 11.0204 18.8415L10.2867 18.0973L18.4414 9.95309C18.5396 9.85565 18.6176 9.73973 18.6708 9.612C18.724 9.48427 18.7514 9.34727 18.7514 9.2089C18.7514 9.07053 18.724 8.93353 18.6708 8.8058C18.6176 8.67808 18.5396 8.56215 18.4414 8.46471L17.6972 7.72052L19.1751 6.29502C19.3703 6.09864 19.4799 5.83298 19.4799 5.55607C19.4799 5.27916 19.3703 5.01351 19.1751 4.81712L18.4414 4.07293L20.6635 1.85083C20.7699 1.75268 20.8548 1.63356 20.9129 1.50097C20.9709 1.36838 21.0009 1.22519 21.0009 1.08044C21.0009 0.935687 20.9709 0.792503 20.9129 0.659912C20.8548 0.52732 20.7699 0.408195 20.6635 0.310043ZM5.84253 13.6321L4.35414 12.1752L5.83204 10.6868L7.34139 12.1752L5.84253 13.6321ZM8.79833 16.5984L7.34139 15.1415L8.79833 13.6321L10.2867 15.1205L8.79833 16.5984ZM11.7646 13.6321L7.34139 9.2089L11.7856 4.76471L12.5298 5.49842L16.2298 9.2089L11.7646 13.6321ZM16.2088 6.29502L14.7309 4.76471L15.4751 4.02052L16.2088 4.75423L16.9425 5.48794L16.2088 6.29502Z" fill="#118795"/>
</svg>
