<svg width="15" height="16" viewBox="0 0 15 16" fill="none" xmlns="http://www.w3.org/2000/svg">
<path d="M10.4407 8.80104L10.4369 8.79953C10.3894 8.77916 10.3433 8.75577 10.295 8.7369C10.834 8.31445 11.2699 7.77501 11.5697 7.15935C11.8696 6.54369 12.0256 5.86792 12.0259 5.18312C12.0241 5.02413 12.0127 4.8654 11.992 4.70777C12.0036 4.67777 12.0132 4.64701 12.0206 4.61572L12.2326 2.80714C12.2988 2.23561 12.1453 1.6603 11.8032 1.19771C11.4611 0.735129 10.9559 0.419845 10.3901 0.315713L9.79404 0.207817C8.27667 -0.0692722 6.72166 -0.0692722 5.2043 0.207817L4.60747 0.315713C4.04163 0.419845 3.53651 0.735129 3.1944 1.19771C2.8523 1.6603 2.69878 2.23561 2.76494 2.80714L2.9762 4.61572C2.98392 4.64703 2.99375 4.67779 3.00563 4.70777C2.98485 4.8654 2.97351 5.02413 2.97167 5.18312C2.97199 5.86792 3.12798 6.54369 3.42783 7.15935C3.72769 7.77501 4.16358 8.31445 4.70254 8.7369C4.65425 8.75577 4.60823 8.77916 4.56069 8.79953L4.55692 8.80104C3.32172 9.32025 2.24802 10.1606 1.44729 11.2349C0.646571 12.3093 0.148018 13.5783 0.00339552 14.9104C-0.0153904 15.1078 0.044294 15.3047 0.169538 15.4584C0.294783 15.6121 0.475518 15.7104 0.672648 15.7319C0.869779 15.7534 1.06746 15.6965 1.22292 15.5734C1.37838 15.4503 1.47913 15.2709 1.50338 15.0741C1.60956 14.0948 1.95534 13.1568 2.51015 12.3428C3.06496 11.5289 3.81172 10.8642 4.68443 10.4074L6.96534 12.6883C7.10684 12.8298 7.29872 12.9092 7.49879 12.9092C7.69886 12.9092 7.89074 12.8298 8.03223 12.6883L10.3131 10.4074C11.1859 10.8642 11.9326 11.5289 12.4874 12.3428C13.0422 13.1568 13.388 14.0948 13.4942 15.0741C13.5143 15.2587 13.6017 15.4295 13.7398 15.5537C13.8779 15.6779 14.057 15.7467 14.2427 15.7471C14.2704 15.7471 14.2981 15.7456 14.3257 15.7426C14.4242 15.7319 14.5197 15.7019 14.6067 15.6542C14.6936 15.6066 14.7703 15.5423 14.8324 15.465C14.8945 15.3877 14.9407 15.299 14.9685 15.2038C14.9962 15.1086 15.005 15.0089 14.9942 14.9104C14.8495 13.5782 14.3508 12.3091 13.55 11.2348C12.7491 10.1605 11.6752 9.32014 10.4399 8.80104H10.4407ZM4.26341 2.63058C4.24149 2.44015 4.29273 2.24851 4.40675 2.09442C4.52078 1.94034 4.68907 1.83531 4.87759 1.80061L5.47366 1.69271C6.81266 1.44801 8.18492 1.44801 9.52392 1.69271L10.12 1.80061C10.3085 1.83531 10.4768 1.94034 10.5908 2.09442C10.7048 2.24851 10.7561 2.44015 10.7342 2.63058L10.5999 3.77292H4.39772L4.26341 2.63058ZM7.49879 11.0887L6.25383 9.84303C7.07443 9.6666 7.92315 9.6666 8.74375 9.84303L7.49879 11.0887ZM7.49879 8.20195C6.7156 8.20102 5.96336 7.89606 5.40062 7.35135C4.83789 6.80663 4.50862 6.0647 4.48222 5.28196H10.5154C10.489 6.0647 10.1597 6.80663 9.59696 7.35135C9.03422 7.89606 8.28198 8.20102 7.49879 8.20195Z" fill="#118795"/>
</svg>
