<svg width="15" height="17" viewBox="0 0 15 17" fill="none" xmlns="http://www.w3.org/2000/svg">
<path d="M7.5 13.5C7.64834 13.5 7.79334 13.456 7.91668 13.3736C8.04002 13.2912 8.13614 13.1741 8.19291 13.037C8.24968 12.9 8.26453 12.7492 8.23559 12.6037C8.20665 12.4582 8.13522 12.3246 8.03033 12.2197C7.92544 12.1148 7.7918 12.0434 7.64632 12.0144C7.50083 11.9855 7.35003 12.0003 7.21299 12.0571C7.07594 12.1139 6.95881 12.21 6.8764 12.3333C6.79399 12.4567 6.75 12.6017 6.75 12.75C6.75 12.9489 6.82902 13.1397 6.96967 13.2803C7.11032 13.421 7.30109 13.5 7.5 13.5ZM11.25 13.5C11.3983 13.5 11.5433 13.456 11.6667 13.3736C11.79 13.2912 11.8861 13.1741 11.9429 13.037C11.9997 12.9 12.0145 12.7492 11.9856 12.6037C11.9566 12.4582 11.8852 12.3246 11.7803 12.2197C11.6754 12.1148 11.5418 12.0434 11.3963 12.0144C11.2508 11.9855 11.1 12.0003 10.963 12.0571C10.8259 12.1139 10.7088 12.21 10.6264 12.3333C10.544 12.4567 10.5 12.6017 10.5 12.75C10.5 12.9489 10.579 13.1397 10.7197 13.2803C10.8603 13.421 11.0511 13.5 11.25 13.5ZM11.25 10.5C11.3983 10.5 11.5433 10.456 11.6667 10.3736C11.79 10.2912 11.8861 10.1741 11.9429 10.037C11.9997 9.89997 12.0145 9.74917 11.9856 9.60368C11.9566 9.4582 11.8852 9.32456 11.7803 9.21967C11.6754 9.11478 11.5418 9.04335 11.3963 9.01441C11.2508 8.98547 11.1 9.00032 10.963 9.05709C10.8259 9.11386 10.7088 9.20998 10.6264 9.33332C10.544 9.45666 10.5 9.60166 10.5 9.75C10.5 9.94891 10.579 10.1397 10.7197 10.2803C10.8603 10.421 11.0511 10.5 11.25 10.5ZM7.5 10.5C7.64834 10.5 7.79334 10.456 7.91668 10.3736C8.04002 10.2912 8.13614 10.1741 8.19291 10.037C8.24968 9.89997 8.26453 9.74917 8.23559 9.60368C8.20665 9.4582 8.13522 9.32456 8.03033 9.21967C7.92544 9.11478 7.7918 9.04335 7.64632 9.01441C7.50083 8.98547 7.35003 9.00032 7.21299 9.05709C7.07594 9.11386 6.95881 9.20998 6.8764 9.33332C6.79399 9.45666 6.75 9.60166 6.75 9.75C6.75 9.94891 6.82902 10.1397 6.96967 10.2803C7.11032 10.421 7.30109 10.5 7.5 10.5ZM12.75 1.5H12V0.75C12 0.551088 11.921 0.360322 11.7803 0.21967C11.6397 0.0790176 11.4489 0 11.25 0C11.0511 0 10.8603 0.0790176 10.7197 0.21967C10.579 0.360322 10.5 0.551088 10.5 0.75V1.5H4.5V0.75C4.5 0.551088 4.42098 0.360322 4.28033 0.21967C4.13968 0.0790176 3.94891 0 3.75 0C3.55109 0 3.36032 0.0790176 3.21967 0.21967C3.07902 0.360322 3 0.551088 3 0.75V1.5H2.25C1.65326 1.5 1.08097 1.73705 0.65901 2.15901C0.237053 2.58097 0 3.15326 0 3.75V14.25C0 14.8467 0.237053 15.419 0.65901 15.841C1.08097 16.2629 1.65326 16.5 2.25 16.5H12.75C13.3467 16.5 13.919 16.2629 14.341 15.841C14.7629 15.419 15 14.8467 15 14.25V3.75C15 3.15326 14.7629 2.58097 14.341 2.15901C13.919 1.73705 13.3467 1.5 12.75 1.5ZM13.5 14.25C13.5 14.4489 13.421 14.6397 13.2803 14.7803C13.1397 14.921 12.9489 15 12.75 15H2.25C2.05109 15 1.86032 14.921 1.71967 14.7803C1.57902 14.6397 1.5 14.4489 1.5 14.25V7.5H13.5V14.25ZM13.5 6H1.5V3.75C1.5 3.55109 1.57902 3.36032 1.71967 3.21967C1.86032 3.07902 2.05109 3 2.25 3H3V3.75C3 3.94891 3.07902 4.13968 3.21967 4.28033C3.36032 4.42098 3.55109 4.5 3.75 4.5C3.94891 4.5 4.13968 4.42098 4.28033 4.28033C4.42098 4.13968 4.5 3.94891 4.5 3.75V3H10.5V3.75C10.5 3.94891 10.579 4.13968 10.7197 4.28033C10.8603 4.42098 11.0511 4.5 11.25 4.5C11.4489 4.5 11.6397 4.42098 11.7803 4.28033C11.921 4.13968 12 3.94891 12 3.75V3H12.75C12.9489 3 13.1397 3.07902 13.2803 3.21967C13.421 3.36032 13.5 3.55109 13.5 3.75V6ZM3.75 10.5C3.89834 10.5 4.04334 10.456 4.16668 10.3736C4.29001 10.2912 4.38614 10.1741 4.44291 10.037C4.49968 9.89997 4.51453 9.74917 4.48559 9.60368C4.45665 9.4582 4.38522 9.32456 4.28033 9.21967C4.17544 9.11478 4.0418 9.04335 3.89632 9.01441C3.75083 8.98547 3.60003 9.00032 3.46299 9.05709C3.32594 9.11386 3.20881 9.20998 3.1264 9.33332C3.04399 9.45666 3 9.60166 3 9.75C3 9.94891 3.07902 10.1397 3.21967 10.2803C3.36032 10.421 3.55109 10.5 3.75 10.5ZM3.75 13.5C3.89834 13.5 4.04334 13.456 4.16668 13.3736C4.29001 13.2912 4.38614 13.1741 4.44291 13.037C4.49968 12.9 4.51453 12.7492 4.48559 12.6037C4.45665 12.4582 4.38522 12.3246 4.28033 12.2197C4.17544 12.1148 4.0418 12.0434 3.89632 12.0144C3.75083 11.9855 3.60003 12.0003 3.46299 12.0571C3.32594 12.1139 3.20881 12.21 3.1264 12.3333C3.04399 12.4567 3 12.6017 3 12.75C3 12.9489 3.07902 13.1397 3.21967 13.2803C3.36032 13.421 3.55109 13.5 3.75 13.5Z" fill="#118795"/>
</svg>
