<svg width="15" height="10" viewBox="0 0 15 10" fill="none" xmlns="http://www.w3.org/2000/svg">
<path d="M4 5.33333C4.39556 5.33333 4.78224 5.21604 5.11114 4.99627C5.44004 4.77651 5.69638 4.46415 5.84776 4.0987C5.99913 3.73325 6.03874 3.33111 5.96157 2.94315C5.8844 2.55519 5.69392 2.19882 5.41421 1.91912C5.13451 1.63941 4.77814 1.44893 4.39018 1.37176C4.00222 1.29459 3.60009 1.3342 3.23463 1.48557C2.86918 1.63695 2.55682 1.89329 2.33706 2.22219C2.1173 2.55109 2 2.93777 2 3.33333C2 3.86377 2.21071 4.37247 2.58579 4.74755C2.96086 5.12262 3.46957 5.33333 4 5.33333ZM4 2.66667C4.13185 2.66667 4.26075 2.70577 4.37038 2.77902C4.48001 2.85227 4.56546 2.95639 4.61592 3.07821C4.66638 3.20003 4.67958 3.33407 4.65386 3.46339C4.62813 3.59271 4.56464 3.7115 4.4714 3.80474C4.37817 3.89797 4.25938 3.96147 4.13006 3.98719C4.00074 4.01291 3.8667 3.99971 3.74488 3.94925C3.62306 3.89879 3.51894 3.81335 3.44569 3.70371C3.37243 3.59408 3.33333 3.46519 3.33333 3.33333C3.33333 3.15652 3.40357 2.98695 3.5286 2.86193C3.65362 2.7369 3.82319 2.66667 4 2.66667ZM12.6667 1.33333H7.33333C7.15652 1.33333 6.98695 1.40357 6.86193 1.5286C6.73691 1.65362 6.66667 1.82319 6.66667 2V6H1.33333V0.666667C1.33333 0.489856 1.2631 0.320287 1.13807 0.195262C1.01305 0.070238 0.843478 0 0.666667 0C0.489856 0 0.320286 0.070238 0.195262 0.195262C0.0702379 0.320287 0 0.489856 0 0.666667V9.33333C0 9.51014 0.0702379 9.67971 0.195262 9.80474C0.320286 9.92976 0.489856 10 0.666667 10C0.843478 10 1.01305 9.92976 1.13807 9.80474C1.2631 9.67971 1.33333 9.51014 1.33333 9.33333V7.33333H13.3333V9.33333C13.3333 9.51014 13.4036 9.67971 13.5286 9.80474C13.6536 9.92976 13.8232 10 14 10C14.1768 10 14.3464 9.92976 14.4714 9.80474C14.5964 9.67971 14.6667 9.51014 14.6667 9.33333V3.33333C14.6667 2.8029 14.456 2.29419 14.0809 1.91912C13.7058 1.54405 13.1971 1.33333 12.6667 1.33333ZM13.3333 6H8V2.66667H12.6667C12.8435 2.66667 13.013 2.7369 13.1381 2.86193C13.2631 2.98695 13.3333 3.15652 13.3333 3.33333V6Z" fill="#118795"/>
</svg>
