<svg width="32" height="32" viewBox="0 0 32 32" fill="none" xmlns="http://www.w3.org/2000/svg">
<rect width="32" height="32" rx="16" fill="#E8F9FB"/>
<path d="M19.0005 11.25C19.2971 11.25 19.5871 11.162 19.8338 10.9972C20.0805 10.8324 20.2727 10.5981 20.3863 10.324C20.4998 10.0499 20.5295 9.74834 20.4716 9.45737C20.4138 9.16639 20.2709 8.89912 20.0611 8.68934C19.8513 8.47956 19.5841 8.3367 19.2931 8.27882C19.0021 8.22094 18.7005 8.25065 18.4264 8.36418C18.1523 8.47771 17.9181 8.66997 17.7532 8.91665C17.5884 9.16332 17.5005 9.45333 17.5005 9.75C17.5005 10.1478 17.6585 10.5294 17.9398 10.8107C18.2211 11.092 18.6026 11.25 19.0005 11.25ZM16.5255 19.8C16.2248 20.1936 15.8315 20.5067 15.3804 20.7112C14.9294 20.9158 14.4347 21.0055 13.9405 20.9724C13.4464 20.9393 12.9681 20.7843 12.5484 20.5213C12.1287 20.2584 11.7806 19.8956 11.5353 19.4653C11.2899 19.0351 11.1549 18.5508 11.1422 18.0557C11.1296 17.5606 11.2397 17.0701 11.4628 16.6279C11.6859 16.1857 12.0149 15.8056 12.4207 15.5216C12.8264 15.2375 13.2961 15.0583 13.788 15C13.9869 14.9781 14.1689 14.8781 14.2941 14.722C14.4193 14.5659 14.4773 14.3664 14.4555 14.1675C14.4336 13.9686 14.3336 13.7865 14.1774 13.6613C14.0213 13.5362 13.8219 13.4781 13.623 13.5C12.4295 13.5666 11.3114 14.1046 10.5146 14.9957C9.71777 15.8867 9.30757 17.0578 9.3742 18.2513C9.44084 19.4447 9.97885 20.5628 10.8699 21.3596C11.7609 22.1564 12.932 22.5666 14.1255 22.5C14.8241 22.5 15.5131 22.3373 16.1379 22.0249C16.7628 21.7125 17.3063 21.2589 17.7255 20.7C17.8448 20.5409 17.896 20.3408 17.8679 20.1439C17.8398 19.947 17.7346 19.7693 17.5755 19.65C17.4163 19.5307 17.2163 19.4794 17.0194 19.5075C16.8225 19.5357 16.6448 19.6409 16.5255 19.8ZM21.6255 21H20.8755V17.25C20.8755 17.0511 20.7964 16.8603 20.6558 16.7197C20.5151 16.579 20.3244 16.5 20.1255 16.5H16.698L17.9655 13.005C17.9655 13.005 17.9655 12.9525 17.9655 12.9225V12.7725C17.9691 12.7276 17.9691 12.6824 17.9655 12.6375C17.9697 12.5901 17.9697 12.5424 17.9655 12.495C17.9459 12.451 17.9233 12.4084 17.898 12.3675C17.8754 12.3266 17.8477 12.2888 17.8155 12.255C17.7833 12.2168 17.7453 12.184 17.703 12.1575C17.703 12.1575 17.703 12.1125 17.643 12.0975L14.283 10.1625H14.193C14.147 10.1431 14.0993 10.128 14.0505 10.1175H13.7505C13.6983 10.1283 13.6479 10.1459 13.6005 10.17H13.518L11.5005 11.3475C11.3571 11.4287 11.2444 11.5549 11.1799 11.7066C11.1155 11.8582 11.1027 12.0269 11.1437 12.1865C11.1847 12.3462 11.2771 12.4878 11.4066 12.5897C11.5362 12.6915 11.6957 12.7479 11.8605 12.75C11.9969 12.7536 12.1317 12.7199 12.2505 12.6525L13.923 11.6775L16.353 13.0875L14.9355 16.995C14.9318 17.0349 14.9318 17.0751 14.9355 17.115C14.9284 17.1597 14.9284 17.2053 14.9355 17.25C14.9493 17.3462 14.9693 17.4414 14.9955 17.535L15.078 17.6475C15.0984 17.6919 15.1263 17.7325 15.1605 17.7675C15.1925 17.7943 15.2278 17.817 15.2655 17.835C15.3101 17.8693 15.3578 17.8994 15.408 17.925C15.4897 17.9547 15.576 17.9699 15.663 17.97H19.413V21.72C19.413 21.9189 19.492 22.1097 19.6326 22.2503C19.7733 22.391 19.964 22.47 20.163 22.47H21.663C21.8619 22.47 22.0526 22.391 22.1933 22.2503C22.3339 22.1097 22.413 21.9189 22.413 21.72C22.413 21.5211 22.3339 21.3303 22.1933 21.1897C22.0526 21.049 21.8619 20.97 21.663 20.97L21.6255 21Z" fill="#118795"/>
</svg>
