<svg width="14" height="15" viewBox="0 0 14 15" fill="none" xmlns="http://www.w3.org/2000/svg">
<path d="M10.1347 3.15617C10.4468 3.15617 10.7519 3.06361 11.0115 2.89021C11.271 2.71681 11.4732 2.47035 11.5927 2.18199C11.7121 1.89363 11.7434 1.57633 11.6825 1.27021C11.6216 0.964096 11.4713 0.682909 11.2506 0.46221C11.0299 0.241511 10.7487 0.0912138 10.4426 0.0303231C10.1365 -0.0305675 9.81917 0.000683753 9.53082 0.120125C9.24246 0.239566 8.996 0.441833 8.8226 0.701347C8.64919 0.960862 8.55664 1.26597 8.55664 1.57808C8.55664 1.99662 8.7229 2.39801 9.01885 2.69396C9.3148 2.9899 9.71619 3.15617 10.1347 3.15617ZM7.53089 12.1512C7.21463 12.5653 6.80077 12.8947 6.32624 13.1099C5.85171 13.3251 5.33128 13.4195 4.81139 13.3847C4.29151 13.3498 3.78834 13.1868 3.3468 12.9101C2.90526 12.6334 2.53908 12.2518 2.28094 11.7992C2.02281 11.3465 1.88075 10.8371 1.86744 10.3162C1.85414 9.79529 1.97 9.27921 2.20469 8.814C2.43938 8.34879 2.78559 7.94892 3.21243 7.65009C3.63927 7.35125 4.13346 7.16273 4.65089 7.10137C4.86015 7.07835 5.05171 6.97314 5.1834 6.80889C5.3151 6.64464 5.37615 6.4348 5.35313 6.22554C5.33011 6.01627 5.22491 5.82472 5.06066 5.69302C4.8964 5.56132 4.68656 5.50027 4.4773 5.52329C3.2217 5.59339 2.04537 6.15941 1.2071 7.09683C0.368828 8.03424 -0.0627241 9.26626 0.0073803 10.5219C0.0774846 11.7775 0.643503 12.9538 1.58092 13.7921C2.51833 14.6303 3.75036 15.0619 5.00596 14.9918C5.74092 14.9918 6.4658 14.8207 7.12318 14.492C7.78055 14.1633 8.35237 13.6861 8.79335 13.0981C8.91891 12.9307 8.97283 12.7202 8.94323 12.5131C8.91364 12.3059 8.80296 12.119 8.63554 11.9934C8.46813 11.8679 8.2577 11.814 8.05053 11.8435C7.84337 11.8731 7.65645 11.9838 7.53089 12.1512ZM12.8964 13.4137H12.1073V9.46849C12.1073 9.25923 12.0242 9.05853 11.8762 8.91056C11.7282 8.76258 11.5276 8.67945 11.3183 8.67945H7.71237L9.04585 5.00252C9.04585 5.00252 9.04585 4.94729 9.04585 4.91573V4.75792C9.04973 4.71066 9.04973 4.66315 9.04585 4.61589C9.05033 4.56602 9.05033 4.51584 9.04585 4.46597C9.02528 4.41969 9.00155 4.37487 8.97483 4.33184C8.95114 4.2888 8.92196 4.24901 8.88804 4.21348C8.85416 4.17334 8.81423 4.13873 8.76968 4.1109C8.76968 4.1109 8.76968 4.06356 8.70656 4.04778L5.17165 2.01206H5.07697C5.02859 1.9916 4.9784 1.97575 4.92705 1.96471H4.61143C4.55662 1.97605 4.50355 1.99462 4.45363 2.01995H4.36683L2.24431 3.25874C2.09346 3.3442 1.97496 3.47696 1.90711 3.63651C1.83927 3.79606 1.82586 3.97352 1.86897 4.14145C1.91207 4.30938 2.00929 4.45844 2.14559 4.56559C2.28189 4.67274 2.44969 4.73201 2.62305 4.73425C2.7666 4.73803 2.90847 4.70256 3.03335 4.63167L4.79291 3.60592L7.34941 5.08932L5.85812 9.20022C5.85429 9.24221 5.85429 9.28447 5.85812 9.32647C5.85073 9.37352 5.85073 9.42144 5.85812 9.46849C5.87266 9.5697 5.89375 9.66985 5.92124 9.76833L6.00804 9.88669C6.02954 9.93342 6.05889 9.97612 6.09483 10.0129C6.12856 10.0411 6.16567 10.065 6.2053 10.0839C6.25225 10.1201 6.30244 10.1517 6.35522 10.1786C6.44122 10.2098 6.532 10.2259 6.62349 10.226H10.5687V14.1712C10.5687 14.3804 10.6518 14.5811 10.7998 14.7291C10.9478 14.8771 11.1485 14.9602 11.3577 14.9602H12.9358C13.1451 14.9602 13.3458 14.8771 13.4938 14.7291C13.6417 14.5811 13.7249 14.3804 13.7249 14.1712C13.7249 13.9619 13.6417 13.7612 13.4938 13.6132C13.3458 13.4653 13.1451 13.3821 12.9358 13.3821L12.8964 13.4137Z" fill="#118795"/>
</svg>
