<svg width="15" height="15" viewBox="0 0 15 15" fill="none" xmlns="http://www.w3.org/2000/svg">
<path d="M5.25001 7.50298H3.75001C3.55109 7.50298 3.36033 7.582 3.21968 7.72265C3.07902 7.8633 3.00001 8.05407 3.00001 8.25298C3.00001 8.45189 3.07902 8.64266 3.21968 8.78331C3.36033 8.92396 3.55109 9.00298 3.75001 9.00298H5.25001C5.44892 9.00298 5.63968 8.92396 5.78034 8.78331C5.92099 8.64266 6.00001 8.45189 6.00001 8.25298C6.00001 8.05407 5.92099 7.8633 5.78034 7.72265C5.63968 7.582 5.44892 7.50298 5.25001 7.50298ZM4.50001 6.00298H7.50001C7.69892 6.00298 7.88968 5.92396 8.03034 5.78331C8.17099 5.64266 8.25001 5.45189 8.25001 5.25298C8.25001 5.05407 8.17099 4.8633 8.03034 4.72265C7.88968 4.582 7.69892 4.50298 7.50001 4.50298H4.50001C4.30109 4.50298 4.11033 4.582 3.96968 4.72265C3.82902 4.8633 3.75001 5.05407 3.75001 5.25298C3.75001 5.45189 3.82902 5.64266 3.96968 5.78331C4.11033 5.92396 4.30109 6.00298 4.50001 6.00298ZM5.25001 10.503H3.75001C3.55109 10.503 3.36033 10.582 3.21968 10.7227C3.07902 10.8633 3.00001 11.0541 3.00001 11.253C3.00001 11.4519 3.07902 11.6427 3.21968 11.7833C3.36033 11.924 3.55109 12.003 3.75001 12.003H5.25001C5.44892 12.003 5.63968 11.924 5.78034 11.7833C5.92099 11.6427 6.00001 11.4519 6.00001 11.253C6.00001 11.0541 5.92099 10.8633 5.78034 10.7227C5.63968 10.582 5.44892 10.503 5.25001 10.503ZM14.25 7.50298H12V0.752981C12.0005 0.620823 11.9661 0.490874 11.9003 0.37629C11.8344 0.261707 11.7395 0.166559 11.625 0.100481C11.511 0.0346548 11.3817 0 11.25 0C11.1184 0 10.989 0.0346548 10.875 0.100481L8.62501 1.39048L6.37501 0.100481C6.26099 0.0346548 6.13166 0 6.00001 0C5.86835 0 5.73902 0.0346548 5.62501 0.100481L3.37501 1.39048L1.12501 0.100481C1.01099 0.0346548 0.881658 0 0.750006 0C0.618353 0 0.48902 0.0346548 0.375006 0.100481C0.260553 0.166559 0.165592 0.261707 0.0997396 0.37629C0.0338871 0.490874 -0.000518763 0.620823 5.91216e-06 0.752981V12.753C5.91216e-06 13.3497 0.237059 13.922 0.659016 14.344C1.08097 14.7659 1.65327 15.003 2.25001 15.003H12.75C13.3467 15.003 13.919 14.7659 14.341 14.344C14.763 13.922 15 13.3497 15 12.753V8.25298C15 8.05407 14.921 7.8633 14.7803 7.72265C14.6397 7.582 14.4489 7.50298 14.25 7.50298ZM2.25001 13.503C2.05109 13.503 1.86033 13.424 1.71968 13.2833C1.57902 13.1427 1.50001 12.9519 1.50001 12.753V2.05048L3.00001 2.90548C3.11576 2.96594 3.24441 2.99751 3.37501 2.99751C3.5056 2.99751 3.63425 2.96594 3.75001 2.90548L6.00001 1.61548L8.25001 2.90548C8.36576 2.96594 8.49441 2.99751 8.62501 2.99751C8.7556 2.99751 8.88425 2.96594 9.00001 2.90548L10.5 2.05048V12.753C10.502 13.0088 10.5477 13.2625 10.635 13.503H2.25001ZM13.5 12.753C13.5 12.9519 13.421 13.1427 13.2803 13.2833C13.1397 13.424 12.9489 13.503 12.75 13.503C12.5511 13.503 12.3603 13.424 12.2197 13.2833C12.079 13.1427 12 12.9519 12 12.753V9.00298H13.5V12.753ZM8.67001 10.6305C8.6282 10.6021 8.5828 10.5794 8.53501 10.563C8.49035 10.5401 8.44218 10.5249 8.39251 10.518C8.27201 10.4939 8.14744 10.4997 8.02974 10.535C7.91204 10.5703 7.80482 10.634 7.71751 10.7205C7.58046 10.8642 7.50277 11.0544 7.50001 11.253C7.49881 11.3505 7.51664 11.4473 7.55251 11.538C7.59327 11.6291 7.64905 11.7128 7.71751 11.7855C7.79041 11.8517 7.87412 11.905 7.96501 11.943C8.05478 11.9827 8.15185 12.0032 8.25001 12.0032C8.34816 12.0032 8.44523 11.9827 8.53501 11.943C8.62589 11.905 8.70961 11.8517 8.78251 11.7855C8.85202 11.7154 8.90701 11.6323 8.94433 11.5409C8.98166 11.4495 9.00058 11.3517 9.00001 11.253C8.99724 11.0544 8.91956 10.8642 8.78251 10.7205C8.74687 10.6882 8.7093 10.6582 8.67001 10.6305ZM8.77501 7.72048C8.68743 7.6352 8.58034 7.57261 8.46305 7.53817C8.34576 7.50373 8.22183 7.49848 8.10205 7.52288C7.98227 7.54728 7.87026 7.60059 7.77579 7.67817C7.68132 7.75574 7.60724 7.85524 7.56001 7.96798C7.51333 8.0816 7.49527 8.20496 7.50742 8.32719C7.51957 8.44943 7.56156 8.56681 7.6297 8.66902C7.69784 8.77122 7.79004 8.85513 7.8982 8.91336C8.00636 8.97159 8.12717 9.00237 8.25001 9.00298C8.44892 9.00298 8.63968 8.92396 8.78034 8.78331C8.92099 8.64266 9.00001 8.45189 9.00001 8.25298C8.99882 8.15497 8.97844 8.05815 8.94001 7.96798C8.90387 7.87435 8.84753 7.78985 8.77501 7.72048Z" fill="#9CA6CB"/>
</svg>
