<svg width="12" height="17" viewBox="0 0 12 17" fill="none" xmlns="http://www.w3.org/2000/svg">
<path d="M11.25 15H10.5V13.7497C10.4977 13.3205 10.4217 12.8949 10.2753 12.4915C10.2671 12.4694 10.2585 12.449 10.2484 12.428C10.1269 12.0969 9.95913 11.7846 9.75 11.5005L8.70008 10.1001C8.40876 9.70999 8.25093 9.23638 8.25 8.74951V7.99215C8.25172 7.39584 8.48843 6.82425 8.90882 6.40133L9.40173 5.90841C9.97444 5.33259 10.3423 4.58473 10.449 3.77963C10.4494 3.76919 10.455 3.76049 10.455 3.74996L10.4529 3.73967C10.4789 3.57997 10.4947 3.41877 10.5 3.25705V1.5H11.25C11.4489 1.5 11.6397 1.42098 11.7803 1.28033C11.921 1.13968 12 0.948912 12 0.75C12 0.551088 11.921 0.360322 11.7803 0.21967C11.6397 0.0790177 11.4489 0 11.25 0H0.750008C0.551095 0 0.36033 0.0790177 0.219677 0.21967C0.0790251 0.360322 7.51019e-06 0.551088 7.51019e-06 0.75C7.51019e-06 0.948912 0.0790251 1.13968 0.219677 1.28033C0.36033 1.42098 0.551095 1.5 0.750008 1.5H1.50001V3.25705C1.50533 3.41877 1.52109 3.57997 1.54716 3.73967L1.54505 3.75C1.54505 3.7605 1.55063 3.76923 1.55105 3.77966C1.65766 4.58477 2.02556 5.33263 2.59827 5.90845L3.09119 6.40137C3.51156 6.82428 3.74828 7.39586 3.75 7.99215V8.7495C3.74902 9.23631 3.59134 9.70986 3.30029 10.1001L2.24963 11.5005C2.04057 11.7847 1.87281 12.0971 1.75135 12.4283C1.74138 12.4491 1.73281 12.4693 1.72471 12.4911C1.57836 12.8947 1.50235 13.3204 1.5 13.7497V15H0.75C0.551088 15 0.360322 15.079 0.21967 15.2197C0.0790176 15.3603 0 15.5511 0 15.75C0 15.9489 0.0790176 16.1397 0.21967 16.2803C0.360322 16.421 0.551088 16.5 0.75 16.5H11.25C11.4489 16.5 11.6397 16.421 11.7803 16.2803C11.921 16.1397 12 15.9489 12 15.75C12 15.5511 11.921 15.3603 11.7803 15.2197C11.6397 15.079 11.4489 15 11.25 15ZM3 3V1.5H9V3H3ZM3.65881 4.8479C3.55314 4.74173 3.45843 4.62518 3.37615 4.5H8.62385C8.54156 4.62517 8.44686 4.74173 8.34118 4.8479L7.84826 5.34083C7.26324 5.92241 6.88811 6.68195 6.78186 7.5H5.21811C5.11189 6.68192 4.73676 5.92236 4.15173 5.34075L3.65881 4.8479ZM4.50037 10.9995C4.93433 10.418 5.19165 9.72385 5.24158 9H6.75842C6.8083 9.72392 7.06577 10.4181 7.5 10.9995L8.25009 12H3.74972L4.50037 10.9995ZM9 15H3V13.7497C3.00209 13.6662 3.0089 13.5828 3.02041 13.5H8.97959C8.9911 13.5828 8.99791 13.6662 9 13.7497V15Z" fill="#9CA6CB"/>
</svg>
