<svg width="66" height="9" viewBox="0 0 66 9" fill="none" xmlns="http://www.w3.org/2000/svg">
<path d="M3.78059 2.04281L1.08059 8.52281C1.03259 8.65081 0.960594 8.75081 0.864594 8.82281C0.768594 8.89481 0.660594 8.93081 0.540594 8.93081C0.364594 8.93081 0.232594 8.88281 0.144594 8.78681C0.0565938 8.68281 0.00859376 8.55481 0.000593759 8.40281C0.000593759 8.34681 0.0125938 8.28281 0.0365938 8.21081L3.08459 0.842812C3.14059 0.706812 3.22059 0.602812 3.32459 0.530812C3.43659 0.458812 3.55659 0.426812 3.68459 0.434812C3.80459 0.434812 3.91659 0.470812 4.02059 0.542812C4.12459 0.614812 4.20059 0.714812 4.24859 0.842812L7.26059 8.10281C7.29259 8.18281 7.30859 8.26281 7.30859 8.34281C7.30859 8.51881 7.24859 8.66281 7.12859 8.77481C7.01659 8.87881 6.88859 8.93081 6.74459 8.93081C6.62459 8.93081 6.51259 8.89481 6.40859 8.82281C6.31259 8.74281 6.24059 8.64281 6.19259 8.52281L3.46859 2.07881L3.78059 2.04281ZM1.56059 6.81881L2.10059 5.66681H5.49659L5.70059 6.81881H1.56059ZM13.5198 0.00281239C13.6958 0.00281239 13.8398 0.0588124 13.9518 0.170812C14.0638 0.282812 14.1198 0.430812 14.1198 0.614812V8.27081C14.1198 8.44681 14.0638 8.59481 13.9518 8.71481C13.8398 8.82681 13.6958 8.88281 13.5198 8.88281C13.3518 8.88281 13.2078 8.82681 13.0878 8.71481C12.9758 8.59481 12.9198 8.44681 12.9198 8.27081V7.40681L13.1718 7.41881C13.1718 7.56281 13.1118 7.72681 12.9918 7.91081C12.8798 8.08681 12.7238 8.25881 12.5238 8.42681C12.3238 8.59481 12.0878 8.73481 11.8158 8.84681C11.5438 8.95081 11.2518 9.00281 10.9398 9.00281C10.3878 9.00281 9.89181 8.86281 9.45181 8.58281C9.01181 8.29481 8.66381 7.90681 8.40781 7.41881C8.15181 6.92281 8.02381 6.35481 8.02381 5.71481C8.02381 5.07481 8.15181 4.51081 8.40781 4.02281C8.66381 3.52681 9.00781 3.13881 9.43981 2.85881C9.87981 2.57081 10.3678 2.42681 10.9038 2.42681C11.2398 2.42681 11.5518 2.48281 11.8398 2.59481C12.1358 2.70681 12.3918 2.85081 12.6078 3.02681C12.8238 3.20281 12.9918 3.39081 13.1118 3.59081C13.2318 3.78281 13.2918 3.96681 13.2918 4.14281L12.9198 4.17881V0.614812C12.9198 0.438812 12.9758 0.294812 13.0878 0.182812C13.2078 0.0628123 13.3518 0.00281239 13.5198 0.00281239ZM11.0718 7.89881C11.4558 7.89881 11.7878 7.80281 12.0678 7.61081C12.3558 7.41881 12.5798 7.15881 12.7398 6.83081C12.8998 6.50281 12.9798 6.13081 12.9798 5.71481C12.9798 5.29881 12.8998 4.92681 12.7398 4.59881C12.5798 4.27081 12.3558 4.01081 12.0678 3.81881C11.7798 3.62681 11.4478 3.53081 11.0718 3.53081C10.7038 3.53081 10.3758 3.62681 10.0878 3.81881C9.80781 4.01081 9.58381 4.27081 9.41581 4.59881C9.25581 4.92681 9.17581 5.29881 9.17581 5.71481C9.17581 6.13081 9.25581 6.50281 9.41581 6.83081C9.58381 7.15881 9.80781 7.41881 10.0878 7.61081C10.3758 7.80281 10.7038 7.89881 11.0718 7.89881ZM20.9729 0.00281239C21.1489 0.00281239 21.2929 0.0588124 21.4049 0.170812C21.5169 0.282812 21.5729 0.430812 21.5729 0.614812V8.27081C21.5729 8.44681 21.5169 8.59481 21.4049 8.71481C21.2929 8.82681 21.1489 8.88281 20.9729 8.88281C20.8049 8.88281 20.6609 8.82681 20.5409 8.71481C20.4289 8.59481 20.3729 8.44681 20.3729 8.27081V7.40681L20.6249 7.41881C20.6249 7.56281 20.5649 7.72681 20.4449 7.91081C20.3329 8.08681 20.1769 8.25881 19.9769 8.42681C19.7769 8.59481 19.5409 8.73481 19.2689 8.84681C18.9969 8.95081 18.7049 9.00281 18.3929 9.00281C17.8409 9.00281 17.3449 8.86281 16.9049 8.58281C16.4649 8.29481 16.1169 7.90681 15.8609 7.41881C15.6049 6.92281 15.4769 6.35481 15.4769 5.71481C15.4769 5.07481 15.6049 4.51081 15.8609 4.02281C16.1169 3.52681 16.4609 3.13881 16.8929 2.85881C17.3329 2.57081 17.8209 2.42681 18.3569 2.42681C18.6929 2.42681 19.0049 2.48281 19.2929 2.59481C19.5889 2.70681 19.8449 2.85081 20.0609 3.02681C20.2769 3.20281 20.4449 3.39081 20.5649 3.59081C20.6849 3.78281 20.7449 3.96681 20.7449 4.14281L20.3729 4.17881V0.614812C20.3729 0.438812 20.4289 0.294812 20.5409 0.182812C20.6609 0.0628123 20.8049 0.00281239 20.9729 0.00281239ZM18.5249 7.89881C18.9089 7.89881 19.2409 7.80281 19.5209 7.61081C19.8089 7.41881 20.0329 7.15881 20.1929 6.83081C20.3529 6.50281 20.4329 6.13081 20.4329 5.71481C20.4329 5.29881 20.3529 4.92681 20.1929 4.59881C20.0329 4.27081 19.8089 4.01081 19.5209 3.81881C19.2329 3.62681 18.9009 3.53081 18.5249 3.53081C18.1569 3.53081 17.8289 3.62681 17.5409 3.81881C17.2609 4.01081 17.0369 4.27081 16.8689 4.59881C16.7089 4.92681 16.6289 5.29881 16.6289 5.71481C16.6289 6.13081 16.7089 6.50281 16.8689 6.83081C17.0369 7.15881 17.2609 7.41881 17.5409 7.61081C17.8289 7.80281 18.1569 7.89881 18.5249 7.89881ZM30.1099 0.482812C30.5339 0.482812 30.9259 0.598812 31.2859 0.830812C31.6459 1.05481 31.9339 1.36281 32.1499 1.75481C32.3659 2.14681 32.4739 2.58681 32.4739 3.07481C32.4739 3.56281 32.3659 4.00681 32.1499 4.40681C31.9339 4.79881 31.6459 5.11481 31.2859 5.35481C30.9259 5.58681 30.5339 5.70281 30.1099 5.70281H27.7939L27.8899 5.51081V8.27081C27.8899 8.44681 27.8339 8.59481 27.7219 8.71481C27.6179 8.82681 27.4779 8.88281 27.3019 8.88281C27.1339 8.88281 26.9939 8.82681 26.8819 8.71481C26.7779 8.59481 26.7259 8.44681 26.7259 8.27081V1.09481C26.7259 0.918812 26.7859 0.774812 26.9059 0.662812C27.0259 0.542812 27.1699 0.482812 27.3379 0.482812H30.1099ZM30.1099 4.55081C30.3179 4.55081 30.5059 4.48281 30.6739 4.34681C30.8499 4.21081 30.9899 4.03081 31.0939 3.80681C31.2059 3.58281 31.2619 3.33881 31.2619 3.07481C31.2619 2.81081 31.2059 2.57081 31.0939 2.35481C30.9899 2.13881 30.8499 1.96681 30.6739 1.83881C30.5059 1.70281 30.3179 1.63481 30.1099 1.63481H27.7699L27.8899 1.45481V4.70681L27.7819 4.55081H30.1099ZM38.9143 2.47481C39.0903 2.47481 39.2343 2.53481 39.3463 2.65481C39.4583 2.76681 39.5143 2.91081 39.5143 3.08681V8.27081C39.5143 8.44681 39.4583 8.59481 39.3463 8.71481C39.2343 8.82681 39.0903 8.88281 38.9143 8.88281C38.7463 8.88281 38.6023 8.82681 38.4823 8.71481C38.3703 8.59481 38.3143 8.44681 38.3143 8.27081V7.40681L38.5663 7.44281C38.5663 7.58681 38.5063 7.74681 38.3863 7.92281C38.2743 8.09881 38.1183 8.27081 37.9183 8.43881C37.7183 8.59881 37.4823 8.73481 37.2103 8.84681C36.9383 8.95081 36.6463 9.00281 36.3343 9.00281C35.7823 9.00281 35.2863 8.86281 34.8463 8.58281C34.4063 8.29481 34.0583 7.90281 33.8023 7.40681C33.5463 6.91081 33.4183 6.34681 33.4183 5.71481C33.4183 5.06681 33.5463 4.49881 33.8023 4.01081C34.0583 3.51481 34.4023 3.12681 34.8343 2.84681C35.2743 2.56681 35.7623 2.42681 36.2983 2.42681C36.6423 2.42681 36.9583 2.48281 37.2463 2.59481C37.5423 2.70681 37.7983 2.85081 38.0143 3.02681C38.2303 3.20281 38.3943 3.39081 38.5063 3.59081C38.6263 3.78281 38.6863 3.96681 38.6863 4.14281L38.3143 4.17881V3.08681C38.3143 2.91881 38.3703 2.77481 38.4823 2.65481C38.6023 2.53481 38.7463 2.47481 38.9143 2.47481ZM36.4663 7.89881C36.8423 7.89881 37.1743 7.80281 37.4623 7.61081C37.7503 7.41881 37.9743 7.15881 38.1343 6.83081C38.2943 6.49481 38.3743 6.12281 38.3743 5.71481C38.3743 5.29881 38.2943 4.92681 38.1343 4.59881C37.9743 4.27081 37.7503 4.01081 37.4623 3.81881C37.1743 3.62681 36.8423 3.53081 36.4663 3.53081C36.0983 3.53081 35.7703 3.62681 35.4823 3.81881C35.2023 4.01081 34.9783 4.27081 34.8103 4.59881C34.6503 4.92681 34.5703 5.29881 34.5703 5.71481C34.5703 6.12281 34.6503 6.49481 34.8103 6.83081C34.9783 7.15881 35.2023 7.41881 35.4823 7.61081C35.7703 7.80281 36.0983 7.89881 36.4663 7.89881ZM41.1115 2.64281H43.9315C44.0915 2.64281 44.2235 2.69881 44.3275 2.81081C44.4395 2.91481 44.4955 3.04681 44.4955 3.20681C44.4955 3.35881 44.4395 3.48681 44.3275 3.59081C44.2235 3.69481 44.0915 3.74681 43.9315 3.74681H41.1115C40.9515 3.74681 40.8155 3.69481 40.7035 3.59081C40.5995 3.47881 40.5475 3.34681 40.5475 3.19481C40.5475 3.03481 40.5995 2.90281 40.7035 2.79881C40.8155 2.69481 40.9515 2.64281 41.1115 2.64281ZM42.3715 1.08281C42.5475 1.08281 42.6915 1.14281 42.8035 1.26281C42.9155 1.37481 42.9715 1.51881 42.9715 1.69481V7.26281C42.9715 7.40681 42.9955 7.52281 43.0435 7.61081C43.0915 7.69881 43.1555 7.75881 43.2355 7.79081C43.3235 7.82281 43.4115 7.83881 43.4995 7.83881C43.5875 7.83881 43.6635 7.82281 43.7275 7.79081C43.7995 7.75881 43.8835 7.74281 43.9795 7.74281C44.0755 7.74281 44.1635 7.78681 44.2435 7.87481C44.3235 7.96281 44.3635 8.08281 44.3635 8.23481C44.3635 8.42681 44.2595 8.58281 44.0515 8.70281C43.8435 8.82281 43.6195 8.88281 43.3795 8.88281C43.2435 8.88281 43.0835 8.87081 42.8995 8.84681C42.7155 8.82281 42.5355 8.76281 42.3595 8.66681C42.1915 8.57081 42.0515 8.41881 41.9395 8.21081C41.8275 7.99481 41.7715 7.69481 41.7715 7.31081V1.69481C41.7715 1.51881 41.8275 1.37481 41.9395 1.26281C42.0595 1.14281 42.2035 1.08281 42.3715 1.08281ZM46.9524 8.27081C46.9524 8.44681 46.8964 8.59481 46.7844 8.71481C46.6724 8.82681 46.5284 8.88281 46.3524 8.88281C46.1844 8.88281 46.0404 8.82681 45.9204 8.71481C45.8084 8.59481 45.7524 8.44681 45.7524 8.27081V3.13481C45.7524 2.95881 45.8084 2.81481 45.9204 2.70281C46.0404 2.58281 46.1844 2.52281 46.3524 2.52281C46.5284 2.52281 46.6724 2.58281 46.7844 2.70281C46.8964 2.81481 46.9524 2.95881 46.9524 3.13481V8.27081ZM46.3404 1.73081C46.1084 1.73081 45.9404 1.69081 45.8364 1.61081C45.7324 1.52281 45.6804 1.37881 45.6804 1.17881V0.986812C45.6804 0.786812 45.7364 0.646812 45.8484 0.566812C45.9604 0.486812 46.1284 0.446812 46.3524 0.446812C46.5924 0.446812 46.7644 0.490812 46.8684 0.578812C46.9724 0.658812 47.0244 0.794812 47.0244 0.986812V1.17881C47.0244 1.38681 46.9684 1.53081 46.8564 1.61081C46.7524 1.69081 46.5804 1.73081 46.3404 1.73081ZM51.5066 9.00281C50.8426 9.00281 50.2666 8.86681 49.7786 8.59481C49.2906 8.31481 48.9106 7.93481 48.6386 7.45481C48.3746 6.96681 48.2426 6.41081 48.2426 5.78681C48.2426 5.08281 48.3826 4.48281 48.6626 3.98681C48.9506 3.48281 49.3226 3.09881 49.7786 2.83481C50.2346 2.56281 50.7186 2.42681 51.2306 2.42681C51.6226 2.42681 51.9946 2.50681 52.3466 2.66681C52.6986 2.81881 53.0106 3.03481 53.2826 3.31481C53.5626 3.58681 53.7826 3.91081 53.9426 4.28681C54.1026 4.65481 54.1866 5.05881 54.1946 5.49881C54.1866 5.65881 54.1226 5.79081 54.0026 5.89481C53.8826 5.99881 53.7426 6.05081 53.5826 6.05081H48.9146L48.6266 5.03081H53.1386L52.9106 5.24681V4.94681C52.8946 4.66681 52.8026 4.42281 52.6346 4.21481C52.4666 3.99881 52.2586 3.83481 52.0106 3.72281C51.7626 3.60281 51.5026 3.54281 51.2306 3.54281C50.9906 3.54281 50.7586 3.58281 50.5346 3.66281C50.3186 3.73481 50.1226 3.85481 49.9466 4.02281C49.7786 4.19081 49.6426 4.41481 49.5386 4.69481C49.4426 4.96681 49.3946 5.30681 49.3946 5.71481C49.3946 6.15481 49.4866 6.53881 49.6706 6.86681C49.8546 7.19481 50.1026 7.45081 50.4146 7.63481C50.7266 7.81081 51.0706 7.89881 51.4466 7.89881C51.7426 7.89881 51.9866 7.87081 52.1786 7.81481C52.3706 7.75081 52.5306 7.67481 52.6586 7.58681C52.7866 7.49881 52.8986 7.41481 52.9946 7.33481C53.1146 7.26281 53.2346 7.22681 53.3546 7.22681C53.4986 7.22681 53.6186 7.27881 53.7146 7.38281C53.8106 7.47881 53.8586 7.59481 53.8586 7.73081C53.8586 7.90681 53.7706 8.06681 53.5946 8.21081C53.3786 8.41881 53.0786 8.60281 52.6946 8.76281C52.3186 8.92281 51.9226 9.00281 51.5066 9.00281ZM58.8029 2.42681C59.3709 2.42681 59.8109 2.54681 60.1229 2.78681C60.4349 3.01881 60.6509 3.33481 60.7709 3.73481C60.8989 4.12681 60.9629 4.56681 60.9629 5.05481V8.27081C60.9629 8.44681 60.9029 8.59481 60.7829 8.71481C60.6709 8.82681 60.5309 8.88281 60.3629 8.88281C60.1869 8.88281 60.0429 8.82681 59.9309 8.71481C59.8189 8.59481 59.7629 8.44681 59.7629 8.27081V5.06681C59.7629 4.77881 59.7229 4.52281 59.6429 4.29881C59.5629 4.06681 59.4229 3.88281 59.2229 3.74681C59.0309 3.60281 58.7589 3.53081 58.4069 3.53081C58.0789 3.53081 57.7909 3.60281 57.5429 3.74681C57.2949 3.88281 57.0989 4.06681 56.9549 4.29881C56.8189 4.52281 56.7509 4.77881 56.7509 5.06681V8.27081C56.7509 8.44681 56.6909 8.59481 56.5709 8.71481C56.4589 8.82681 56.3189 8.88281 56.1509 8.88281C55.9749 8.88281 55.8309 8.82681 55.7189 8.71481C55.6069 8.59481 55.5509 8.44681 55.5509 8.27081V3.18281C55.5509 3.00681 55.6069 2.86281 55.7189 2.75081C55.8309 2.63081 55.9749 2.57081 56.1509 2.57081C56.3189 2.57081 56.4589 2.63081 56.5709 2.75081C56.6909 2.86281 56.7509 3.00681 56.7509 3.18281V3.85481L56.5349 3.97481C56.5909 3.79881 56.6869 3.62281 56.8229 3.44681C56.9669 3.26281 57.1389 3.09481 57.3389 2.94281C57.5389 2.78281 57.7629 2.65881 58.0109 2.57081C58.2589 2.47481 58.5229 2.42681 58.8029 2.42681ZM62.5451 2.64281H65.3651C65.5251 2.64281 65.6571 2.69881 65.7611 2.81081C65.8731 2.91481 65.9291 3.04681 65.9291 3.20681C65.9291 3.35881 65.8731 3.48681 65.7611 3.59081C65.6571 3.69481 65.5251 3.74681 65.3651 3.74681H62.5451C62.3851 3.74681 62.2491 3.69481 62.1371 3.59081C62.0331 3.47881 61.9811 3.34681 61.9811 3.19481C61.9811 3.03481 62.0331 2.90281 62.1371 2.79881C62.2491 2.69481 62.3851 2.64281 62.5451 2.64281ZM63.8051 1.08281C63.9811 1.08281 64.1251 1.14281 64.2371 1.26281C64.3491 1.37481 64.4051 1.51881 64.4051 1.69481V7.26281C64.4051 7.40681 64.4291 7.52281 64.4771 7.61081C64.5251 7.69881 64.5891 7.75881 64.6691 7.79081C64.7571 7.82281 64.8451 7.83881 64.9331 7.83881C65.0211 7.83881 65.0971 7.82281 65.1611 7.79081C65.2331 7.75881 65.3171 7.74281 65.4131 7.74281C65.5091 7.74281 65.5971 7.78681 65.6771 7.87481C65.7571 7.96281 65.7971 8.08281 65.7971 8.23481C65.7971 8.42681 65.6931 8.58281 65.4851 8.70281C65.2771 8.82281 65.0531 8.88281 64.8131 8.88281C64.6771 8.88281 64.5171 8.87081 64.3331 8.84681C64.1491 8.82281 63.9691 8.76281 63.7931 8.66681C63.6251 8.57081 63.4851 8.41881 63.3731 8.21081C63.2611 7.99481 63.2051 7.69481 63.2051 7.31081V1.69481C63.2051 1.51881 63.2611 1.37481 63.3731 1.26281C63.4931 1.14281 63.6371 1.08281 63.8051 1.08281Z" fill="white"/>
</svg>
