<svg width="14" height="14" viewBox="0 0 14 14" fill="none" xmlns="http://www.w3.org/2000/svg">
<path d="M13.8049 12.8114L11.2092 10.2366C12.2167 8.98033 12.7047 7.38573 12.5727 5.78072C12.4406 4.1757 11.6987 2.68227 10.4994 1.6075C9.30005 0.532724 7.73452 -0.0416923 6.12469 0.00235852C4.51485 0.0464093 2.98308 0.705579 1.84433 1.84433C0.705579 2.98308 0.0464093 4.51485 0.00235852 6.12469C-0.0416923 7.73452 0.532724 9.30005 1.6075 10.4994C2.68227 11.6987 4.1757 12.4406 5.78072 12.5727C7.38573 12.7047 8.98033 12.2167 10.2366 11.2092L12.8114 13.7839C12.8764 13.8495 12.9538 13.9015 13.0391 13.937C13.1243 13.9726 13.2158 13.9909 13.3081 13.9909C13.4005 13.9909 13.4919 13.9726 13.5772 13.937C13.6625 13.9015 13.7398 13.8495 13.8049 13.7839C13.931 13.6534 14.0015 13.4791 14.0015 13.2976C14.0015 13.1162 13.931 12.9418 13.8049 12.8114ZM6.31155 11.2092C5.34289 11.2092 4.39599 10.9219 3.59058 10.3838C2.78518 9.8456 2.15744 9.0807 1.78675 8.18578C1.41606 7.29086 1.31907 6.30612 1.50805 5.35607C1.69702 4.40603 2.16347 3.53336 2.84842 2.84842C3.53336 2.16347 4.40603 1.69702 5.35607 1.50805C6.30612 1.31907 7.29086 1.41606 8.18578 1.78675C9.0807 2.15744 9.8456 2.78518 10.3838 3.59058C10.9219 4.39599 11.2092 5.34289 11.2092 6.31155C11.2092 7.61047 10.6932 8.8562 9.77468 9.77468C8.8562 10.6932 7.61047 11.2092 6.31155 11.2092Z" fill="#18C1D5"/>
</svg>
