<svg width="17" height="13" viewBox="0 0 17 13" fill="none" xmlns="http://www.w3.org/2000/svg">
<path d="M8.64118 6.66824C9.04921 6.31504 9.37648 5.87821 9.60079 5.38737C9.82509 4.89654 9.94118 4.36319 9.94118 3.82353C9.94118 2.80947 9.53834 1.83694 8.82129 1.11989C8.10424 0.402835 7.13171 1.36814e-07 6.11765 1.36814e-07C5.10358 1.36814e-07 4.13105 0.402835 3.414 1.11989C2.69695 1.83694 2.29412 2.80947 2.29412 3.82353C2.29411 4.36319 2.4102 4.89654 2.63451 5.38737C2.85881 5.87821 3.18609 6.31504 3.59412 6.66824C2.52364 7.15297 1.61541 7.93576 0.978044 8.923C0.340673 9.91025 0.00112554 11.0602 0 12.2353C0 12.4381 0.080567 12.6326 0.223977 12.776C0.367387 12.9194 0.561893 13 0.764706 13C0.967519 13 1.16202 12.9194 1.30543 12.776C1.44884 12.6326 1.52941 12.4381 1.52941 12.2353C1.52941 11.0184 2.01281 9.85138 2.87328 8.99092C3.73374 8.13046 4.90077 7.64706 6.11765 7.64706C7.33452 7.64706 8.50156 8.13046 9.36202 8.99092C10.2225 9.85138 10.7059 11.0184 10.7059 12.2353C10.7059 12.4381 10.7865 12.6326 10.9299 12.776C11.0733 12.9194 11.2678 13 11.4706 13C11.6734 13 11.8679 12.9194 12.0113 12.776C12.1547 12.6326 12.2353 12.4381 12.2353 12.2353C12.2342 11.0602 11.8946 9.91025 11.2573 8.923C10.6199 7.93576 9.71166 7.15297 8.64118 6.66824ZM6.11765 6.11765C5.66391 6.11765 5.22037 5.9831 4.8431 5.73102C4.46584 5.47894 4.1718 5.12065 3.99816 4.70145C3.82452 4.28226 3.77909 3.82098 3.86761 3.37597C3.95613 2.93095 4.17462 2.52218 4.49546 2.20134C4.8163 1.88051 5.22507 1.66201 5.67009 1.57349C6.1151 1.48497 6.57637 1.53041 6.99557 1.70404C7.41476 1.87768 7.77306 2.17172 8.02514 2.54899C8.27722 2.92625 8.41177 3.3698 8.41177 3.82353C8.41177 4.43197 8.17006 5.01549 7.73983 5.44572C7.3096 5.87595 6.72609 6.11765 6.11765 6.11765ZM13.5659 6.36235C14.0553 5.81125 14.3749 5.13045 14.4864 4.40191C14.5979 3.67336 14.4965 2.92812 14.1943 2.25588C13.8921 1.58365 13.4021 1.01308 12.7832 0.612853C12.1643 0.212626 11.4429 -0.000196988 10.7059 1.36814e-07C10.5031 1.36814e-07 10.3086 0.0805671 10.1652 0.223977C10.0217 0.367387 9.94118 0.561893 9.94118 0.764706C9.94118 0.967519 10.0217 1.16202 10.1652 1.30543C10.3086 1.44884 10.5031 1.52941 10.7059 1.52941C11.3143 1.52941 11.8978 1.77111 12.3281 2.20134C12.7583 2.63157 13 3.21509 13 3.82353C12.9989 4.22518 12.8924 4.61951 12.6911 4.96709C12.4898 5.31466 12.2008 5.60329 11.8529 5.80412C11.7396 5.86952 11.6449 5.96292 11.5779 6.07539C11.511 6.18786 11.474 6.31563 11.4706 6.44647C11.4674 6.57629 11.4973 6.70479 11.5575 6.81984C11.6177 6.9349 11.7062 7.03273 11.8147 7.10412L12.1129 7.30294L12.2124 7.35647C13.1341 7.79367 13.9118 8.48517 14.4537 9.34953C14.9956 10.2139 15.2792 11.2151 15.2712 12.2353C15.2712 12.4381 15.3517 12.6326 15.4952 12.776C15.6386 12.9194 15.8331 13 16.0359 13C16.2387 13 16.4332 12.9194 16.5766 12.776C16.72 12.6326 16.8006 12.4381 16.8006 12.2353C16.8068 11.0618 16.5129 9.90619 15.9468 8.87828C15.3806 7.85037 14.561 6.9843 13.5659 6.36235Z" fill="#9CA6CB"/>
</svg>
