<svg width="11" height="13" viewBox="0 0 11 13" fill="none" xmlns="http://www.w3.org/2000/svg">
<path d="M9.77418 4.16256L10.3962 3.54741C10.5249 3.4187 10.5972 3.24413 10.5972 3.06212C10.5972 2.8801 10.5249 2.70553 10.3962 2.57682C10.2675 2.44812 10.0929 2.37581 9.91088 2.37581C9.72886 2.37581 9.5543 2.44812 9.42559 2.57682L8.81043 3.19882C7.85253 2.45779 6.67573 2.05574 5.46466 2.05574C4.2536 2.05574 3.07679 2.45779 2.11889 3.19882L1.4969 2.56999C1.36729 2.44128 1.19185 2.36934 1.00919 2.36998C0.826533 2.37062 0.651608 2.44379 0.522901 2.57341C0.394194 2.70302 0.322248 2.87845 0.322889 3.06111C0.32353 3.24377 0.396706 3.4187 0.526319 3.54741L1.15515 4.1694C0.405349 5.12463 -0.00149221 6.30423 1.79277e-05 7.51859C-0.00221419 8.39035 0.20402 9.25001 0.601521 10.0259C0.999022 10.8017 1.57627 11.4713 2.28512 11.9788C2.99396 12.4862 3.81387 12.8168 4.67645 12.943C5.53903 13.0693 6.41928 12.9874 7.2438 12.7043C8.06832 12.4212 8.81319 11.945 9.41631 11.3156C10.0194 10.6861 10.4633 9.92158 10.7109 9.08572C10.9585 8.24986 11.0027 7.36691 10.8398 6.51051C10.6768 5.65411 10.3115 4.84908 9.77418 4.16256ZM5.46808 11.6196C4.65697 11.6196 3.86407 11.3791 3.18966 10.9285C2.51525 10.4779 1.98961 9.83736 1.67921 9.08799C1.36881 8.33862 1.28759 7.51404 1.44583 6.71851C1.60407 5.92299 1.99466 5.19225 2.5682 4.61871C3.14174 4.04517 3.87248 3.65458 4.66801 3.49634C5.46353 3.3381 6.28812 3.41931 7.03748 3.72971C7.78685 4.04011 8.42735 4.56575 8.87798 5.24017C9.32861 5.91458 9.56913 6.70748 9.56913 7.51859C9.56913 8.60625 9.13706 9.64937 8.36796 10.4185C7.59886 11.1876 6.55575 11.6196 5.46808 11.6196ZM4.10107 1.36702H6.8351C7.01637 1.36702 7.19023 1.295 7.31841 1.16682C7.44659 1.03864 7.5186 0.864785 7.5186 0.683508C7.5186 0.50223 7.44659 0.328377 7.31841 0.200195C7.19023 0.0720122 7.01637 0 6.8351 0H4.10107C3.91979 0 3.74593 0.0720122 3.61775 0.200195C3.48957 0.328377 3.41756 0.50223 3.41756 0.683508C3.41756 0.864785 3.48957 1.03864 3.61775 1.16682C3.74593 1.295 3.91979 1.36702 4.10107 1.36702ZM6.15159 5.46806C6.15159 5.28679 6.07958 5.11293 5.95139 4.98475C5.82321 4.85657 5.64936 4.78456 5.46808 4.78456C5.2868 4.78456 5.11295 4.85657 4.98477 4.98475C4.85659 5.11293 4.78457 5.28679 4.78457 5.46806V6.75989C4.62981 6.89832 4.52072 7.08048 4.47174 7.28226C4.42277 7.48404 4.43622 7.69594 4.51031 7.88991C4.5844 8.08389 4.71564 8.25079 4.88667 8.36854C5.05769 8.48629 5.26044 8.54934 5.46808 8.54934C5.67572 8.54934 5.87847 8.48629 6.0495 8.36854C6.22052 8.25079 6.35176 8.08389 6.42585 7.88991C6.49994 7.69594 6.51339 7.48404 6.46442 7.28226C6.41544 7.08048 6.30636 6.89832 6.15159 6.75989V5.46806Z" fill="#EF3B5B"/>
</svg>
